<?xml version="1.0" standalone="no"?>
<!DOCTYPE svg PUBLIC "-//W3C//DTD SVG 20010904//EN"
 "http://www.w3.org/TR/2001/REC-SVG-20010904/DTD/svg10.dtd">
<svg version="1.0" xmlns="http://www.w3.org/2000/svg"
 width="98.000000pt" height="96.000000pt" viewBox="0 0 98.000000 96.000000"
 preserveAspectRatio="xMidYMid meet">

<g transform="translate(0.000000,96.000000) scale(0.100000,-0.100000)"
fill="#000000" stroke="none">
<path d="M152 877 c-30 -32 -31 -116 -2 -142 27 -24 25 -53 -13 -275 -30 -172
-34 -185 -57 -197 -38 -19 -50 -42 -50 -95 0 -77 42 -105 141 -96 35 4 61 14
87 35 34 27 94 105 104 134 3 9 9 9 25 0 15 -7 98 -11 251 -11 224 0 229 0
249 23 24 25 43 105 43 177 0 66 -23 90 -86 90 -57 0 -76 -10 -103 -55 -11
-19 -25 -35 -31 -35 -15 0 -12 42 10 160 18 98 22 107 55 133 33 27 35 33 35
87 0 92 9 90 -340 90 l-297 0 -21 -23z m617 -21 c7 -8 11 -32 9 -53 -2 -31 -8
-41 -34 -53 -31 -15 -32 -17 -59 -170 -15 -85 -30 -161 -33 -167 -3 -10 11
-13 51 -13 52 0 55 2 62 28 10 42 34 62 75 62 44 0 60 -14 60 -55 0 -44 -21
-147 -33 -162 -7 -10 -66 -13 -232 -13 -248 0 -249 0 -243 67 2 29 9 41 29 50
24 12 28 24 57 185 35 187 34 194 -23 182 -16 -4 -31 -8 -33 -9 -2 -2 -21
-104 -43 -226 -23 -134 -48 -243 -61 -272 -42 -93 -132 -151 -205 -132 -42 10
-53 24 -53 64 0 42 14 61 46 61 27 0 23 -15 73 284 22 134 34 226 28 226 -6 0
-19 7 -29 17 -21 19 -25 82 -6 101 19 19 581 17 597 -2z m-303 -173 c-3 -10
-15 -72 -26 -138 -12 -66 -24 -122 -26 -124 -14 -14 -12 20 6 125 25 142 28
154 41 154 6 0 8 -8 5 -17z"/>
</g>
</svg>
